<svg width="144" height="213" viewBox="0 0 144 213" fill="none" xmlns="http://www.w3.org/2000/svg">
<path d="M7.3073 61.1659C7.12358 57.5902 6.9708 54.2224 6.75447 50.8587C6.69961 50.0055 6.52682 49.1382 6.26384 48.3237C4.99065 44.3805 3.83704 40.3864 2.30722 36.5422C1.18514 33.7226 2.02741 30.8937 1.65916 28.0779C0.989493 22.9572 2.51659 17.6886 0.272881 12.6053C-0.813944 10.143 1.59948 10.2962 3.05688 10.2939C10.3918 10.2822 17.7269 10.3968 25.062 10.3938C28.726 10.3923 32.3908 10.1459 36.0537 10.1797C38.2511 10.1999 38.9124 9.28882 38.8714 7.19195C38.8245 4.79591 38.5205 2.35382 39.1121 0.0461416C40.4951 0.0461416 41.7201 -0.0746473 42.911 0.0746376C44.6688 0.294971 45.8532 1.3504 45.882 3.16893C45.9486 7.37977 48.1464 11.1594 48.1733 15.4193C48.1841 17.1172 50.043 18.0527 51.7884 18.2657C53.6996 18.499 55.6684 17.9428 57.3411 19.701C58.0085 20.4025 59.66 20.3411 60.8616 20.3332C62.7409 20.321 64.245 20.4925 64.9521 22.6629C65.322 23.7984 69.433 23.9604 70.6536 22.6422C73.6084 19.4513 77.1888 20.87 80.4779 21.1805C82.1637 21.3397 83.8805 22.4154 85.6283 22.9631C86.999 23.3926 87.5826 24.1303 85.9306 25.5933C88.6464 25.423 90.1695 26.11 90.2633 28.7765C90.2992 29.7967 91.0966 30.8352 92.3097 31.6462C92.7968 29.4502 94.0385 28.388 96.3049 28.6423C97.4634 28.7723 98.331 29.0604 98.7026 30.2462C98.9441 31.0168 99.3266 31.8796 100.104 32.0287C102.668 32.5206 104.287 34.4425 106.301 35.778C108.977 37.5523 111.048 37.3583 113.618 35.4867C115.093 34.4122 116.655 33.4525 118.199 32.4754C119.611 31.5829 120.618 31.7653 121.11 33.5474C121.629 35.4263 122.704 35.9401 124.811 35.6702C127.287 35.3531 129.843 35.5351 132.35 35.1012C133.919 34.8297 135.297 35.2115 136.142 36.7479C136.945 38.2088 137.984 38.9026 139.786 38.232C140.991 37.784 142.331 38.0324 144 38.5181C140.745 41.6437 136.989 43.188 133.242 44.7566C130.589 45.8668 127.717 46.3308 125.131 47.6577C119.89 50.3473 116.055 54.6311 112.182 58.8609C108.53 62.849 104.782 66.7357 100.13 69.5646C97.3136 71.2775 96.1729 74.368 93.9052 76.5156C93.5216 76.879 93.6438 77.838 93.6392 78.5225C93.6152 82.0905 93.5591 85.6604 93.6511 89.2261C93.7002 91.1244 92.9402 92.3548 91.2847 93.1798C90.1164 93.7619 89.0475 94.5755 87.8386 95.0367C84.4923 96.3133 84.3241 99.9963 82.2587 102.251C81.7356 102.822 81.8292 104.261 83.1019 104.894C86.4969 106.584 87.188 108.344 85.5672 111.559C84.2128 114.245 84.7092 117.11 84.5455 119.901C84.4865 120.906 84.5693 121.974 84.6388 123.003C84.7511 124.664 82.8329 126.547 85.4886 128.001C87.09 128.878 88.034 130.884 90.281 130.77C90.6799 130.749 91.2686 130.93 91.4769 131.223C94.2911 135.191 100.263 135.666 102.001 141.026C102.599 142.873 104.694 144.163 107.024 144.78C109.97 145.559 111.748 147.539 112.719 150.765C113.484 153.307 112.598 155.736 113.338 158.138C113.616 159.042 112.955 159.643 112.094 159.806C111.33 159.95 110.532 159.953 109.749 159.953C79.2669 159.979 48.785 160 18.3032 160.015C14.6849 160.017 14.6729 160.002 14.6715 156.39C14.6665 142.727 14.6492 129.064 14.6874 115.4C14.6952 112.6 14.0083 110.588 10.8947 109.749C8.41789 109.081 8.18156 106.266 7.14377 104.392C6.31622 102.898 8.32496 101.9 9.46831 101.074C11.0022 99.9673 11.841 98.5382 12.054 96.7402C12.6357 91.8305 12.7325 87.0015 10.0297 82.5189C8.7573 80.4086 8.20035 77.8033 8.20177 75.5468C8.20481 70.7838 7.38382 66.1081 7.3073 61.1659Z" fill="white"/>
<path d="M14.386 169.174H18.6649L20.5727 182.779H20.6272L22.535 169.174H26.8139V188.183H23.9794V173.791H23.9249L21.7446 188.183H19.2372L17.0569 173.791H17.0024V188.183H14.386V169.174Z" fill="white"/>
<path d="M28.9148 169.174H31.9127V188.183H28.9148V169.174Z" fill="white"/>
<path d="M34.0217 169.174H37.7827L40.6989 180.553H40.7534V169.174H43.4243V188.183H40.3446L36.7471 174.307H36.6926V188.183H34.0217V169.174Z" fill="white"/>
<path d="M45.5163 169.174H49.2773L52.1935 180.553H52.248V169.174H54.9189V188.183H51.8392L48.2417 174.307H48.1872V188.183H45.5163V169.174Z" fill="white"/>
<path d="M57.0109 169.174H65.1871V171.89H60.0088V176.914H64.1241V179.629H60.0088V185.468H65.1871V188.183H57.0109V169.174Z" fill="white"/>
<path d="M70.726 188.455C69.2724 188.455 68.1732 188.048 67.4283 187.233C66.6833 186.4 66.3109 185.214 66.3109 183.675V182.589H69.1453V183.893C69.1453 185.124 69.6631 185.739 70.6987 185.739C71.2075 185.739 71.589 185.595 71.8434 185.305C72.116 184.997 72.2522 184.508 72.2522 183.838C72.2522 183.042 72.0705 182.345 71.7071 181.747C71.3438 181.132 70.6715 180.399 69.6903 179.548C68.4548 178.462 67.5918 177.484 67.1012 176.615C66.6106 175.728 66.3654 174.732 66.3654 173.628C66.3654 172.125 66.7469 170.966 67.51 170.152C68.2731 169.319 69.3815 168.903 70.835 168.903C72.2704 168.903 73.3515 169.319 74.0782 170.152C74.8232 170.966 75.1957 172.143 75.1957 173.682V174.47H72.3612V173.492C72.3612 172.84 72.2341 172.369 71.9797 172.08C71.7253 171.772 71.3528 171.618 70.8623 171.618C69.863 171.618 69.3633 172.225 69.3633 173.438C69.3633 174.126 69.545 174.768 69.9084 175.366C70.2899 175.963 70.9713 176.687 71.9524 177.538C73.2061 178.624 74.0692 179.611 74.5416 180.498C75.014 181.385 75.2502 182.426 75.2502 183.621C75.2502 185.178 74.8595 186.373 74.0782 187.206C73.3151 188.039 72.1977 188.455 70.726 188.455Z" fill="white"/>
<path d="M81.1662 188.455C79.6945 188.455 78.568 188.039 77.7867 187.206C77.0054 186.373 76.6148 185.196 76.6148 183.675V173.682C76.6148 172.161 77.0054 170.984 77.7867 170.152C78.568 169.319 79.6945 168.903 81.1662 168.903C82.6379 168.903 83.7644 169.319 84.5457 170.152C85.327 170.984 85.7176 172.161 85.7176 173.682V183.675C85.7176 185.196 85.327 186.373 84.5457 187.206C83.7644 188.039 82.6379 188.455 81.1662 188.455ZM81.1662 185.739C82.2018 185.739 82.7197 185.115 82.7197 183.866V173.492C82.7197 172.243 82.2018 171.618 81.1662 171.618C80.1305 171.618 79.6127 172.243 79.6127 173.492V183.866C79.6127 185.115 80.1305 185.739 81.1662 185.739Z" fill="white"/>
<path d="M89.8462 171.89H86.712V169.174H95.9783V171.89H92.8441V188.183H89.8462V171.89Z" fill="white"/>
<path d="M98.3592 169.174H102.42L105.527 188.183H102.529L101.984 184.409V184.463H98.5772L98.0322 188.183H95.2523L98.3592 169.174ZM101.63 181.883L100.294 172.487H100.24L98.9315 181.883H101.63Z" fill="white"/>
<path d="M14.386 193.719H18.9102C20.4546 193.719 21.5811 194.081 22.2897 194.805C22.9983 195.511 23.3526 196.607 23.3526 198.091V198.852C23.3526 199.829 23.1891 200.626 22.862 201.241C22.5531 201.857 22.0717 202.3 21.4176 202.572V202.626C22.9074 203.133 23.6524 204.455 23.6524 206.591V208.221C23.6524 209.687 23.2617 210.809 22.4805 211.588C21.7174 212.348 20.5909 212.728 19.101 212.728H14.386V193.719ZM18.5559 201.459C19.1555 201.459 19.6006 201.305 19.8913 200.997C20.2002 200.689 20.3547 200.173 20.3547 199.449V198.39C20.3547 197.702 20.2275 197.204 19.9731 196.896C19.7369 196.589 19.3553 196.435 18.8284 196.435H17.384V201.459H18.5559ZM19.101 210.013C19.6279 210.013 20.0185 209.877 20.2729 209.605C20.5273 209.316 20.6545 208.827 20.6545 208.139V206.483C20.6545 205.614 20.5 205.016 20.1911 204.69C19.9004 204.346 19.4099 204.174 18.7194 204.174H17.384V210.013H19.101Z" fill="white"/>
<path d="M25.2685 193.719H28.2664V212.728H25.2685V193.719Z" fill="white"/>
<path d="M30.3754 193.719H34.8178C36.3622 193.719 37.4887 194.081 38.1973 194.805C38.9059 195.511 39.2602 196.607 39.2602 198.091V199.259C39.2602 201.232 38.6061 202.482 37.2979 203.007V203.061C38.0247 203.278 38.5334 203.722 38.8241 204.391C39.133 205.061 39.2875 205.957 39.2875 207.08V210.42C39.2875 210.963 39.3056 211.407 39.342 211.751C39.3783 212.077 39.4691 212.403 39.6145 212.728H36.5621C36.453 212.421 36.3804 212.131 36.344 211.859C36.3077 211.588 36.2895 211.099 36.2895 210.393V206.917C36.2895 206.048 36.1442 205.442 35.8535 205.098C35.5809 204.754 35.0994 204.582 34.409 204.582H33.3733V212.728H30.3754V193.719ZM34.4635 201.866C35.0631 201.866 35.5082 201.712 35.7989 201.404C36.1078 201.097 36.2623 200.581 36.2623 199.856V198.39C36.2623 197.702 36.1351 197.204 35.8807 196.896C35.6445 196.589 35.2629 196.435 34.736 196.435H33.3733V201.866H34.4635Z" fill="white"/>
<path d="M43.5218 196.435H40.3876V193.719H49.654V196.435H46.5198V212.728H43.5218V196.435Z" fill="white"/>
<path d="M50.9692 193.719H53.9671V201.459H57.1831V193.719H60.181V212.728H57.1831V204.174H53.9671V212.728H50.9692V193.719Z" fill="white"/>
<path d="M70.7305 213C69.2951 213 68.1958 212.593 67.4327 211.778C66.6878 210.963 66.3153 209.814 66.3153 208.329V198.118C66.3153 196.634 66.6878 195.484 67.4327 194.67C68.1958 193.855 69.2951 193.448 70.7305 193.448C72.1658 193.448 73.256 193.855 74.001 194.67C74.7641 195.484 75.1456 196.634 75.1456 198.118V200.128H72.3112V197.928C72.3112 196.752 71.8116 196.163 70.8122 196.163C69.8129 196.163 69.3133 196.752 69.3133 197.928V208.546C69.3133 209.705 69.8129 210.284 70.8122 210.284C71.8116 210.284 72.3112 209.705 72.3112 208.546V205.641H75.1456V208.329C75.1456 209.814 74.7641 210.963 74.001 211.778C73.256 212.593 72.1658 213 70.7305 213Z" fill="white"/>
<path d="M76.803 193.719H84.9792V196.435H79.8009V201.459H83.9163V204.174H79.8009V210.013H84.9792V212.728H76.803V193.719Z" fill="white"/>
<path d="M86.5676 193.719H90.3286L93.2448 205.098H93.2993V193.719H95.9702V212.728H92.8905L89.293 198.852H89.2385V212.728H86.5676V193.719Z" fill="white"/>
<path d="M100.406 196.435H97.2718V193.719H106.538V196.435H103.404V212.728H100.406V196.435Z" fill="white"/>
<path d="M107.853 193.719H116.03V196.435H110.851V201.459H114.967V204.174H110.851V210.013H116.03V212.728H107.853V193.719Z" fill="white"/>
<path d="M117.618 193.719H122.06C123.605 193.719 124.731 194.081 125.44 194.805C126.148 195.511 126.503 196.607 126.503 198.091V199.259C126.503 201.232 125.849 202.482 124.541 203.007V203.061C125.267 203.278 125.776 203.722 126.067 204.391C126.376 205.061 126.53 205.957 126.53 207.08V210.42C126.53 210.963 126.548 211.407 126.585 211.751C126.621 212.077 126.712 212.403 126.857 212.728H123.805C123.696 212.421 123.623 212.131 123.587 211.859C123.55 211.588 123.532 211.099 123.532 210.393V206.917C123.532 206.048 123.387 205.442 123.096 205.098C122.823 204.754 122.342 204.582 121.652 204.582H120.616V212.728H117.618V193.719ZM121.706 201.866C122.306 201.866 122.751 201.712 123.042 201.404C123.35 201.097 123.505 200.581 123.505 199.856V198.39C123.505 197.702 123.378 197.204 123.123 196.896C122.887 196.589 122.506 196.435 121.979 196.435H120.616V201.866H121.706Z" fill="white"/>
</svg>
