<svg width="142" height="158" viewBox="0 0 142 158" fill="none" xmlns="http://www.w3.org/2000/svg">
<path d="M7.17746 60.3955C6.99701 56.8648 6.84694 53.5394 6.63445 50.2181C6.58057 49.3757 6.41085 48.5193 6.15253 47.715C4.90198 43.8215 3.76886 39.8777 2.26622 36.0819C1.16408 33.2978 1.99138 30.5046 1.62968 27.7242C0.971911 22.668 2.47187 17.4658 0.268033 12.4465C-0.799482 10.0153 1.57106 10.1665 3.00256 10.1642C10.2072 10.1526 17.412 10.2659 24.6166 10.2629C28.2156 10.2614 31.8153 10.0181 35.4131 10.0514C37.5714 10.0714 38.221 9.17182 38.1807 7.10136C38.1346 4.7355 37.836 2.32417 38.4171 0.0455604C39.7755 0.0455604 40.9788 -0.0737071 42.1486 0.0736974C43.8751 0.291255 45.0384 1.33339 45.0667 3.12902C45.1322 7.28681 47.2909 11.0188 47.3173 15.225C47.3279 16.9016 49.1538 17.8253 50.8682 18.0357C52.7454 18.266 54.6792 17.7168 56.3222 19.4528C56.9778 20.1455 58.5999 20.0848 59.7801 20.0771C61.626 20.065 63.1034 20.2344 63.798 22.3774C64.1613 23.4987 68.1993 23.6586 69.3982 22.357C72.3004 19.2063 75.8172 20.6071 79.0479 20.9137C80.7038 21.0709 82.39 22.1331 84.1068 22.6739C85.4531 23.098 86.0264 23.8263 84.4037 25.271C87.0713 25.1028 88.5673 25.7811 88.6594 28.4141C88.6946 29.4214 89.4779 30.4468 90.6695 31.2476C91.1479 29.0793 92.3675 28.0305 94.5936 28.2815C95.7316 28.4099 96.5838 28.6944 96.9488 29.8652C97.186 30.6261 97.5617 31.478 98.3254 31.6253C100.844 32.111 102.434 34.0086 104.412 35.3273C107.041 37.0793 109.075 36.8878 111.599 35.0397C113.048 33.9787 114.582 33.0311 116.099 32.0664C117.485 31.1851 118.475 31.3652 118.958 33.1249C119.468 34.9801 120.523 35.4874 122.593 35.2209C125.025 34.9078 127.536 35.0875 129.998 34.6591C131.539 34.391 132.893 34.768 133.723 36.285C134.511 37.7275 135.532 38.4126 137.302 37.7504C138.485 37.308 139.802 37.5533 141.441 38.0329C138.244 41.1191 134.555 42.644 130.874 44.1929C128.269 45.289 125.448 45.7472 122.908 47.0574C117.76 49.7131 113.993 53.943 110.189 58.1195C106.601 62.0574 102.92 65.8951 98.3508 68.6884C95.5844 70.3797 94.464 73.4313 92.2366 75.5518C91.8598 75.9106 91.9799 76.8575 91.9754 77.5334C91.9518 81.0565 91.8967 84.5814 91.9871 88.1022C92.0352 89.9766 91.2887 91.1915 89.6626 92.0061C88.5152 92.5809 87.4653 93.3842 86.2778 93.8396C82.9909 95.1002 82.8258 98.7368 80.797 100.963C80.2833 101.527 80.3751 102.947 81.6252 103.573C84.9599 105.242 85.6387 106.98 84.0468 110.153C82.7164 112.806 83.204 115.635 83.0432 118.391C82.9853 119.383 83.0666 120.437 83.1349 121.454C83.2451 123.094 81.3611 124.953 83.9696 126.389C85.5425 127.254 86.4697 129.235 88.6768 129.122C89.0686 129.102 89.6468 129.28 89.8515 129.57C92.6157 133.488 98.4814 133.957 100.188 139.25C100.776 141.073 102.834 142.348 105.122 142.956C108.016 143.726 109.762 145.68 110.716 148.866C111.467 151.376 110.598 153.774 111.324 156.146C111.597 157.038 110.948 157.633 110.103 157.793C109.352 157.936 108.568 157.938 107.799 157.939C77.8584 157.964 47.9182 157.985 17.9779 158C14.424 158.002 14.4122 157.987 14.4108 154.42C14.4059 140.929 14.3889 127.438 14.4264 113.947C14.4341 111.182 13.7594 109.195 10.7012 108.367C8.26832 107.707 8.03618 104.927 7.01683 103.077C6.20399 101.602 8.17704 100.616 9.30007 99.8013C10.8067 98.7081 11.6306 97.297 11.8398 95.5217C12.4112 90.6738 12.5062 85.9056 9.85148 81.4795C8.60169 79.3958 8.05464 76.8233 8.05604 74.5952C8.05902 69.8922 7.25262 65.2754 7.17746 60.3955Z" fill="#7A998C"/>
</svg>
